<svg xmlns="http://www.w3.org/2000/svg" width="60" height="60" fill="none" viewBox="0 0 60 60"><rect width="60" height="60" fill="#003B62" rx="10"/><path fill="#fff" d="M46.277 22.568c-2.903-.018-4.503 1.686-6.143 8.362-1.038 4.225-1.744 6.518-1.769 6.075-.65-.627-3.145-5.124-5.703-11.825-2.852-7.462-7.558-4.679-7.558-4.679-1.013-2.981-2.417-4.094-3.617-4.42-.787-.214-2.152.02-2.86.422-6.185 3.508-13.51 24.217-7.218 26.935 6.247 2.698 9.794-13.46 11.84-16.936 0 0 .794-1.456.948-1.53 0 0 2.576 10.75 6.615 16.211 4.036 5.462 7.821.852 7.821.852 6.473 5.801 9.429-2.86 10.23-5.23.336-.991 1.03-3.773 1.135-6.622.042-2.05-.443-7.597-3.718-7.615h-.003Zm-29.295 11.31c-.35.962-.68 1.78-.989 2.48-.62 1.34-2.14 4.07-3.758 2.849-1.724-1.5 1.978-11.038 2.193-11.551.232-.553 4.749-10.422 7.384-7.197.656.802.817 1.735.817 1.735-.747.652-2.838 3.915-5.652 11.686l.005-.002Zm16.129 5.486c-2.539-2.406-6.906-15.917-6.906-15.917s2.202-2.02 4.37 3.903v.005c1.326 3.993 4.744 10.772 6.319 12.135 0 0-1.146 2.377-3.786-.124l.003-.002Zm13.09-2.395a8.872 8.872 0 0 1-.727 1.801c-1.153 2.091-1.988 2.217-2.953 2.202-1.243-.02-2.351-1.397-2.351-1.397.814-1.497 2.297-7.887 2.297-7.887 1.741-7.155 4.135-7.573 4.87-3.96.339 1.668.264 5.203-1.139 9.237l.002.004Z"/></svg>
